# xmcd
#
# Track frame offsets:
#       150
#       28050
#       52050
#       77325
#       96375
#       118650
#       140213
#       162938
#       186249
#       204624
#       227507
#       249802
#       268174
#       295370
#       315537
#       332279
#
# Disc length: 4639 seconds
#
# Revision: 1
# Processed by: cddbd v1.5.1PL0 Copyright (c) Steve Scherf et al.
# Submitted via: MusiCat 1.1
#
DISCID=e5121d10
DTITLE=Various Artist - Luxurious Breath Of Catacombs 1st Dungeon
DYEAR=1900
DGENRE=
TTITLE0=Non Compos Mentis - Profound Protection
TTITLE1=Morthem Vlade Art - Demons Of Buried Toys
TTITLE2=L'âme Immortelle - Love Is Lost
TTITLE3=Galan Pixs - Escape
TTITLE4=Perfidious Words - It means A Lot To Me (Album Version)
TTITLE5=Weltenbrand - The Fiddler
TTITLE6=Die Form - The Didden Cage
TTITLE7=Chaos God - Realm Of Chaos
TTITLE8=Frontline Assembly - Prophecy (Radio One)
TTITLE9=Noisex - Stomp Age
TTITLE10=Second Decay - Deep Inside Me
TTITLE11=Fiction 8 - Feed The Chaos
TTITLE12=Funker Vogt - Tragic Hero (Covenant RMX)
TTITLE13=Hexedene - Damage (The Dust Of Bastement Mix)
TTITLE14=CO2 - Sad Song
TTITLE15=Exovedate - Lost And Found
EXTD=\n\n
EXTT0=
EXTT1=
EXTT2=
EXTT3=
EXTT4=
EXTT5=
EXTT6=
EXTT7=
EXTT8=
EXTT9=
EXTT10=
EXTT11=
EXTT12=
EXTT13=
EXTT14=
EXTT15=
PLAYORDER=
